<?xml version="1.0" standalone="no"?>
<!DOCTYPE svg PUBLIC "-//W3C//DTD SVG 20010904//EN"
 "http://www.w3.org/TR/2001/REC-SVG-20010904/DTD/svg10.dtd">
<svg version="1.0" xmlns="http://www.w3.org/2000/svg"
 width="310.000000pt" height="312.000000pt" viewBox="0 0 310.000000 312.000000"
 preserveAspectRatio="xMidYMid meet">

<g transform="translate(0.000000,312.000000) scale(0.100000,-0.100000)"
fill="#000000" stroke="none">
<path d="M1495 2977 c-27 -13 -111 -71 -185 -129 -74 -57 -277 -211 -450 -343
-669 -507 -670 -508 -670 -576 0 -31 7 -47 29 -70 39 -38 85 -39 134 -1 20 15
148 114 284 220 137 106 399 305 582 442 298 222 339 250 372 250 39 0 72 -24
275 -195 33 -29 73 -55 88 -59 41 -10 97 21 119 66 16 33 16 40 4 71 -8 18
-37 52 -63 75 -282 238 -317 261 -412 268 -46 4 -67 0 -107 -19z"/>
<path d="M2233 2485 c-35 -15 -73 -67 -73 -99 0 -21 56 -79 141 -145 39 -31
60 -41 87 -41 59 1 102 47 102 111 0 53 -155 190 -212 189 -7 -1 -28 -7 -45
-15z"/>
<path d="M2568 2093 l-118 -87 0 -608 c0 -668 -1 -651 60 -683 37 -19 54 -19
96 1 66 31 64 13 64 643 0 313 4 572 8 575 5 3 33 -15 62 -40 60 -51 100 -74
130 -74 29 0 77 27 90 49 16 32 12 86 -10 114 -30 38 -232 197 -250 197 -8 -1
-68 -40 -132 -87z"/>
<path d="M619 1869 l-106 -70 -8 -273 c-8 -302 -3 -373 28 -412 42 -53 108
-63 154 -22 42 38 43 56 41 460 l-3 388 -106 -71z"/>
<path d="M2085 1842 l-130 -78 4 -164 c2 -91 4 -166 6 -168 1 -1 64 34 139 79
l136 81 0 164 c0 125 -3 164 -12 164 -7 0 -71 -35 -143 -78z"/>
<path d="M1760 1657 l-125 -72 -3 -169 c-2 -157 -1 -168 15 -162 37 15 245
140 249 150 2 6 1 82 -4 169 l-7 157 -125 -73z"/>
<path d="M1500 1514 c-30 -19 -88 -53 -127 -75 l-73 -41 0 -164 c0 -105 4
-164 10 -164 6 0 64 30 130 68 l120 67 0 173 c0 94 -1 172 -2 171 -2 0 -28
-16 -58 -35z"/>
<path d="M2155 1452 c-33 -21 -140 -84 -237 -140 -98 -57 -178 -105 -178 -108
0 -2 110 -4 244 -4 l245 0 3 145 c2 92 -1 145 -7 144 -5 0 -37 -17 -70 -37z"/>
<path d="M1079 1277 l-144 -83 -3 -77 c-2 -63 0 -78 13 -83 9 -4 76 -3 150 1
l134 7 3 155 c2 85 0 157 -3 159 -3 2 -71 -34 -150 -79z"/>
<path d="M580 883 c-57 -21 -84 -91 -54 -142 34 -57 20 -56 605 -56 l539 0 32
33 c27 26 32 39 32 72 -1 22 -8 47 -15 56 -35 43 -54 44 -601 43 -288 0 -530
-3 -538 -6z"/>
<path d="M1805 757 c-3 -7 -4 -149 -3 -317 l3 -305 52 -3 51 -3 5 68 c9 152 6
547 -5 560 -14 17 -97 17 -103 0z"/>
<path d="M2030 750 c-22 -22 -26 -69 -10 -100 13 -24 63 -35 92 -19 31 16 38
28 38 67 0 41 -30 72 -70 72 -17 0 -39 -9 -50 -20z"/>
<path d="M608 576 c-56 -20 -85 -42 -117 -87 -85 -117 -47 -279 80 -343 88
-43 204 -32 266 26 30 28 29 41 -8 72 -37 32 -42 32 -80 3 -46 -33 -109 -30
-147 7 -17 15 -32 37 -35 47 -5 18 3 19 164 21 93 0 174 1 180 2 7 1 33 -42
58 -94 41 -86 49 -96 78 -101 46 -9 70 12 105 90 17 36 57 123 89 193 32 69
59 135 59 146 0 14 -9 21 -34 25 -73 12 -87 -6 -171 -221 -16 -40 -31 -69 -35
-65 -4 4 -31 68 -61 142 -58 143 -72 159 -130 146 -27 -6 -44 -29 -34 -46 3
-5 -16 3 -42 16 -60 32 -135 40 -185 21z m146 -127 c51 -40 36 -49 -79 -49
-58 0 -105 4 -105 9 0 4 12 20 26 35 35 34 117 37 158 5z"/>
<path d="M1450 579 c-25 -5 -56 -17 -70 -27 -58 -44 -21 -112 50 -92 58 16
115 12 144 -11 14 -11 26 -25 26 -30 0 -5 -43 -9 -96 -9 -142 0 -201 -38 -211
-133 -12 -123 133 -198 260 -134 43 22 46 23 50 5 4 -14 15 -18 56 -18 l51 0
0 184 c0 173 -1 185 -22 211 -12 15 -35 33 -52 40 -44 18 -133 25 -186 14z
m145 -269 c11 -18 -24 -61 -62 -76 -36 -15 -86 -11 -110 8 -16 13 -17 50 -1
66 15 15 164 16 173 2z"/>
<path d="M2322 564 c-84 -42 -132 -121 -132 -216 1 -131 103 -231 234 -230 69
1 106 12 153 48 42 32 41 47 -2 80 -38 29 -36 29 -105 -11 -44 -26 -88 -17
-137 28 -13 11 -23 29 -23 39 0 16 14 18 168 20 l167 3 3 37 c7 78 -62 180
-144 214 -53 22 -123 17 -182 -12z m143 -98 c29 -12 55 -41 55 -60 0 -3 -47
-6 -105 -6 -58 0 -105 4 -105 8 0 11 51 58 70 65 26 9 50 7 85 -7z"/>
<path d="M2014 556 c-3 -7 -1 -105 3 -216 l8 -203 26 -9 c16 -5 37 -5 52 1
l27 11 0 215 0 215 -55 0 c-38 0 -57 -4 -61 -14z"/>
</g>
</svg>
